<mxfile host="app.diagrams.net" agent="Mozilla/5.0 (Windows NT 10.0; Win64; x64) AppleWebKit/537.36 (KHTML, like Gecko) Chrome/128.0.0.0 Safari/537.36" version="28.0.4">
  <diagram name="第 1 页" id="Yg_90ggBkmj9C00fmV8f">
    <mxGraphModel dx="1167" dy="633" grid="1" gridSize="10" guides="1" tooltips="1" connect="1" arrows="1" fold="1" page="1" pageScale="1" pageWidth="827" pageHeight="1169" math="0" shadow="0">
      <root>
        <mxCell id="0" />
        <mxCell id="1" parent="0" />
        <mxCell id="aVr3TgQDZ5fMdV3m3wK9-1" value="&lt;b style=&quot;color: rgb(0, 0, 0); font-family: SimSun; font-size: 33px;&quot;&gt;多源数据采集层&lt;/b&gt;" style="rounded=1;whiteSpace=wrap;html=1;fillColor=#f5f5f5;fontColor=#333333;strokeColor=#666666;" vertex="1" parent="1">
          <mxGeometry x="220" y="160" width="270" height="80" as="geometry" />
        </mxCell>
        <mxCell id="aVr3TgQDZ5fMdV3m3wK9-2" value="&lt;b style=&quot;color: rgb(0, 0, 0); font-family: SimSun; font-size: 33px;&quot;&gt;数据清洗与对齐&lt;/b&gt;" style="rounded=1;whiteSpace=wrap;html=1;fillColor=#f5f5f5;fontColor=#333333;strokeColor=#666666;" vertex="1" parent="1">
          <mxGeometry x="220" y="280" width="270" height="80" as="geometry" />
        </mxCell>
        <mxCell id="aVr3TgQDZ5fMdV3m3wK9-4" value="&lt;b style=&quot;color: rgb(0, 0, 0); font-family: SimSun; font-size: 33px;&quot;&gt;结构化数据存储&lt;/b&gt;" style="rounded=0;whiteSpace=wrap;html=1;fillColor=#fff2cc;strokeColor=#d6b656;" vertex="1" parent="1">
          <mxGeometry x="60" y="410" width="270" height="90" as="geometry" />
        </mxCell>
        <mxCell id="aVr3TgQDZ5fMdV3m3wK9-5" value="&lt;b style=&quot;color: rgb(0, 0, 0); font-family: SimSun; font-size: 33px;&quot;&gt;非结构化文本处理&lt;/b&gt;" style="rounded=0;whiteSpace=wrap;html=1;fillColor=#fff2cc;strokeColor=#d6b656;" vertex="1" parent="1">
          <mxGeometry x="360" y="410" width="290" height="90" as="geometry" />
        </mxCell>
      </root>
    </mxGraphModel>
  </diagram>
</mxfile>
